# xmcd
#
# Track frame offsets: 
#        150
#        15726
#        32128
#        44712
#        60288
#        76690
#
# Disc length: 1190 seconds
#
# Revision: 0
# Processed by: cddbd v1.5.2PL0 Copyright (c) Steve Scherf et al.
# Submitted via: ExactAudioCopy v1.3
#
DISCID=3f04a406
DTITLE=Colt McBee - Country Boy Like Me
DYEAR=2016
DGENRE=Country
TTITLE0=Country Boy Like Me
TTITLE1=Love Where Are You
TTITLE2=Young Love
TTITLE3=Country Boy Like Me (Acoustic)
TTITLE4=Love Where Are You (Acoustic)
TTITLE5=Young Love (Acoustic)
EXTD=
EXTT0=
EXTT1=
EXTT2=
EXTT3=
EXTT4=
EXTT5=
PLAYORDER=
